<svg viewBox="0 0 1000 1414" xmlns="http://www.w3.org/2000/svg" font-family="'Arial Narrow','Apple SD Gothic Neo',sans-serif">
<rect width="1000" height="1414" fill="#f4f2ea"/>
<line x1="0" y1="0" x2="0" y2="1414" stroke="#cfd8e6" stroke-width="0.5"/>
<line x1="40" y1="0" x2="40" y2="1414" stroke="#cfd8e6" stroke-width="0.5"/>
<line x1="80" y1="0" x2="80" y2="1414" stroke="#cfd8e6" stroke-width="0.5"/>
<line x1="120" y1="0" x2="120" y2="1414" stroke="#cfd8e6" stroke-width="0.5"/>
<line x1="160" y1="0" x2="160" y2="1414" stroke="#cfd8e6" stroke-width="0.5"/>
<line x1="200" y1="0" x2="200" y2="1414" stroke="#cfd8e6" stroke-width="0.5"/>
<line x1="240" y1="0" x2="240" y2="1414" stroke="#cfd8e6" stroke-width="0.5"/>
<line x1="280" y1="0" x2="280" y2="1414" stroke="#cfd8e6" stroke-width="0.5"/>
<line x1="320" y1="0" x2="320" y2="1414" stroke="#cfd8e6" stroke-width="0.5"/>
<line x1="360" y1="0" x2="360" y2="1414" stroke="#cfd8e6" stroke-width="0.5"/>
<line x1="400" y1="0" x2="400" y2="1414" stroke="#cfd8e6" stroke-width="0.5"/>
<line x1="440" y1="0" x2="440" y2="1414" stroke="#cfd8e6" stroke-width="0.5"/>
<line x1="480" y1="0" x2="480" y2="1414" stroke="#cfd8e6" stroke-width="0.5"/>
<line x1="520" y1="0" x2="520" y2="1414" stroke="#cfd8e6" stroke-width="0.5"/>
<line x1="560" y1="0" x2="560" y2="1414" stroke="#cfd8e6" stroke-width="0.5"/>
<line x1="600" y1="0" x2="600" y2="1414" stroke="#cfd8e6" stroke-width="0.5"/>
<line x1="640" y1="0" x2="640" y2="1414" stroke="#cfd8e6" stroke-width="0.5"/>
<line x1="680" y1="0" x2="680" y2="1414" stroke="#cfd8e6" stroke-width="0.5"/>
<line x1="720" y1="0" x2="720" y2="1414" stroke="#cfd8e6" stroke-width="0.5"/>
<line x1="760" y1="0" x2="760" y2="1414" stroke="#cfd8e6" stroke-width="0.5"/>
<line x1="800" y1="0" x2="800" y2="1414" stroke="#cfd8e6" stroke-width="0.5"/>
<line x1="840" y1="0" x2="840" y2="1414" stroke="#cfd8e6" stroke-width="0.5"/>
<line x1="880" y1="0" x2="880" y2="1414" stroke="#cfd8e6" stroke-width="0.5"/>
<line x1="920" y1="0" x2="920" y2="1414" stroke="#cfd8e6" stroke-width="0.5"/>
<line x1="960" y1="0" x2="960" y2="1414" stroke="#cfd8e6" stroke-width="0.5"/>
<line x1="1000" y1="0" x2="1000" y2="1414" stroke="#cfd8e6" stroke-width="0.5"/>
<line x1="0" y1="0" x2="1000" y2="0" stroke="#cfd8e6" stroke-width="0.5"/>
<line x1="0" y1="40" x2="1000" y2="40" stroke="#cfd8e6" stroke-width="0.5"/>
<line x1="0" y1="80" x2="1000" y2="80" stroke="#cfd8e6" stroke-width="0.5"/>
<line x1="0" y1="120" x2="1000" y2="120" stroke="#cfd8e6" stroke-width="0.5"/>
<line x1="0" y1="160" x2="1000" y2="160" stroke="#cfd8e6" stroke-width="0.5"/>
<line x1="0" y1="200" x2="1000" y2="200" stroke="#cfd8e6" stroke-width="0.5"/>
<line x1="0" y1="240" x2="1000" y2="240" stroke="#cfd8e6" stroke-width="0.5"/>
<line x1="0" y1="280" x2="1000" y2="280" stroke="#cfd8e6" stroke-width="0.5"/>
<line x1="0" y1="320" x2="1000" y2="320" stroke="#cfd8e6" stroke-width="0.5"/>
<line x1="0" y1="360" x2="1000" y2="360" stroke="#cfd8e6" stroke-width="0.5"/>
<line x1="0" y1="400" x2="1000" y2="400" stroke="#cfd8e6" stroke-width="0.5"/>
<line x1="0" y1="440" x2="1000" y2="440" stroke="#cfd8e6" stroke-width="0.5"/>
<line x1="0" y1="480" x2="1000" y2="480" stroke="#cfd8e6" stroke-width="0.5"/>
<line x1="0" y1="520" x2="1000" y2="520" stroke="#cfd8e6" stroke-width="0.5"/>
<line x1="0" y1="560" x2="1000" y2="560" stroke="#cfd8e6" stroke-width="0.5"/>
<line x1="0" y1="600" x2="1000" y2="600" stroke="#cfd8e6" stroke-width="0.5"/>
<line x1="0" y1="640" x2="1000" y2="640" stroke="#cfd8e6" stroke-width="0.5"/>
<line x1="0" y1="680" x2="1000" y2="680" stroke="#cfd8e6" stroke-width="0.5"/>
<line x1="0" y1="720" x2="1000" y2="720" stroke="#cfd8e6" stroke-width="0.5"/>
<line x1="0" y1="760" x2="1000" y2="760" stroke="#cfd8e6" stroke-width="0.5"/>
<line x1="0" y1="800" x2="1000" y2="800" stroke="#cfd8e6" stroke-width="0.5"/>
<line x1="0" y1="840" x2="1000" y2="840" stroke="#cfd8e6" stroke-width="0.5"/>
<line x1="0" y1="880" x2="1000" y2="880" stroke="#cfd8e6" stroke-width="0.5"/>
<line x1="0" y1="920" x2="1000" y2="920" stroke="#cfd8e6" stroke-width="0.5"/>
<line x1="0" y1="960" x2="1000" y2="960" stroke="#cfd8e6" stroke-width="0.5"/>
<line x1="0" y1="1000" x2="1000" y2="1000" stroke="#cfd8e6" stroke-width="0.5"/>
<line x1="0" y1="1040" x2="1000" y2="1040" stroke="#cfd8e6" stroke-width="0.5"/>
<line x1="0" y1="1080" x2="1000" y2="1080" stroke="#cfd8e6" stroke-width="0.5"/>
<line x1="0" y1="1120" x2="1000" y2="1120" stroke="#cfd8e6" stroke-width="0.5"/>
<line x1="0" y1="1160" x2="1000" y2="1160" stroke="#cfd8e6" stroke-width="0.5"/>
<line x1="0" y1="1200" x2="1000" y2="1200" stroke="#cfd8e6" stroke-width="0.5"/>
<line x1="0" y1="1240" x2="1000" y2="1240" stroke="#cfd8e6" stroke-width="0.5"/>
<line x1="0" y1="1280" x2="1000" y2="1280" stroke="#cfd8e6" stroke-width="0.5"/>
<line x1="0" y1="1320" x2="1000" y2="1320" stroke="#cfd8e6" stroke-width="0.5"/>
<line x1="0" y1="1360" x2="1000" y2="1360" stroke="#cfd8e6" stroke-width="0.5"/>
<line x1="0" y1="1400" x2="1000" y2="1400" stroke="#cfd8e6" stroke-width="0.5"/>
<line x1="60" y1="40" x2="60" y2="1374" stroke="#141414" stroke-width="1.6"/>
<line x1="940" y1="40" x2="940" y2="1374" stroke="#141414" stroke-width="1.6"/>
<line x1="60" y1="40" x2="940" y2="40" stroke="#141414" stroke-width="1.6"/>
<line x1="60" y1="360" x2="940" y2="360" stroke="#141414" stroke-width="1.6"/>
<line x1="60" y1="1235" x2="940" y2="1235" stroke="#141414" stroke-width="1.6"/>
<line x1="60" y1="1374" x2="940" y2="1374" stroke="#141414" stroke-width="1.6"/>
<rect x="60" y="40" width="120" height="320" fill="#f07d0c"/>
<rect x="820" y="40" width="120" height="320" fill="#7ec820"/>
<text x="720" y="1180" font-size="460" font-weight="900" fill="#000" opacity="0.045" text-anchor="middle">307</text>
<line x1="360" y1="1250" x2="560" y2="330" stroke="#f4f2ea" stroke-width="14" stroke-linecap="round"/>
<line x1="360" y1="1250" x2="560" y2="330" stroke="#8a73d8" stroke-width="9" stroke-linecap="round"/>
<text x="391.2" y="1160.4" font-size="19" font-weight="800" fill="#8a73d8" transform="rotate(-77.7 391.2 1160.4)">언양</text>
<text x="471.2" y="792.4" font-size="19" font-weight="800" fill="#8a73d8" transform="rotate(-77.7 471.2 792.4)">무거동</text>
<text x="551.2" y="424.4" font-size="19" font-weight="800" fill="#8a73d8" transform="rotate(-77.7 551.2 424.4)">공업탑</text>
<circle cx="416" cy="992" r="20" fill="#f4f2ea" stroke="#8a73d8" stroke-width="3"/>
<text x="416" y="998" font-size="16" font-weight="900" fill="#8a73d8" text-anchor="middle">좌석</text>
<line x1="560" y1="560" x2="900" y2="430" stroke="#f4f2ea" stroke-width="17" stroke-linecap="round"/>
<line x1="560" y1="560" x2="900" y2="430" stroke="#7ec820" stroke-width="12" stroke-linecap="round"/>
<text x="598.6" y="559.1" font-size="20" font-weight="800" fill="#7ec820" transform="rotate(-20.9 598.6 559.1)">함월</text>
<text x="689.3" y="524.5" font-size="20" font-weight="800" fill="#7ec820" transform="rotate(-20.9 689.3 524.5)">약사</text>
<text x="780.0" y="489.8" font-size="20" font-weight="800" fill="#7ec820" transform="rotate(-20.9 780.0 489.8)">운동장</text>
<text x="870.6" y="455.1" font-size="20" font-weight="800" fill="#7ec820" transform="rotate(-20.9 870.6 455.1)">우신병원</text>
<circle cx="713" cy="502" r="20" fill="#f4f2ea" stroke="#7ec820" stroke-width="3"/>
<text x="713" y="508" font-size="16" font-weight="900" fill="#7ec820" text-anchor="middle">14</text>
<line x1="660" y1="1240" x2="960" y2="580" stroke="#f4f2ea" stroke-width="13" stroke-linecap="round"/>
<line x1="660" y1="1240" x2="960" y2="580" stroke="#e85aa6" stroke-width="8" stroke-linecap="round"/>
<text x="700.0" y="1178.6" font-size="17" font-weight="800" fill="#e85aa6" transform="rotate(-65.6 700.0 1178.6)">명촌</text>
<text x="820.0" y="914.6" font-size="17" font-weight="800" fill="#e85aa6" transform="rotate(-65.6 820.0 914.6)">진장</text>
<text x="940.0" y="650.6" font-size="17" font-weight="800" fill="#e85aa6" transform="rotate(-65.6 940.0 650.6)">농수산물</text>
<circle cx="810" cy="910" r="20" fill="#f4f2ea" stroke="#e85aa6" stroke-width="3"/>
<text x="810" y="916" font-size="16" font-weight="900" fill="#e85aa6" text-anchor="middle">순환</text>
<line x1="150" y1="560" x2="560" y2="1180" stroke="#f4f2ea" stroke-width="13" stroke-linecap="round"/>
<line x1="150" y1="560" x2="560" y2="1180" stroke="#2f7fe0" stroke-width="8" stroke-linecap="round"/>
<text x="181.8" y="628.1" font-size="17" font-weight="800" fill="#2f7fe0" transform="rotate(56.5 181.8 628.1)">야음</text>
<text x="345.8" y="876.1" font-size="17" font-weight="800" fill="#2f7fe0" transform="rotate(56.5 345.8 876.1)">신정</text>
<text x="509.8" y="1124.1" font-size="17" font-weight="800" fill="#2f7fe0" transform="rotate(56.5 509.8 1124.1)">법원</text>
<circle cx="396" cy="932" r="20" fill="#f4f2ea" stroke="#2f7fe0" stroke-width="3"/>
<text x="396" y="938" font-size="16" font-weight="900" fill="#2f7fe0" text-anchor="middle">지선</text>
<line x1="60" y1="500" x2="950" y2="980" stroke="#141414" stroke-width="70" stroke-linecap="round"/>
<line x1="60" y1="500" x2="950" y2="980" stroke="#ffc20e" stroke-width="62" stroke-linecap="round"/>
<text x="137.7" y="526.4" font-size="40" font-weight="900" fill="#141414" text-anchor="middle" transform="rotate(28.3 137.7 526.4)" letter-spacing="0.5">천상중학교</text>
<text x="324.6" y="627.2" font-size="40" font-weight="900" fill="#141414" text-anchor="middle" transform="rotate(28.3 324.6 627.2)" letter-spacing="0.5">신복로터리</text>
<text x="511.5" y="728.0" font-size="40" font-weight="900" fill="#141414" text-anchor="middle" transform="rotate(28.3 511.5 728.0)" letter-spacing="0.5">울산대학교</text>
<text x="698.4" y="828.8" font-size="40" font-weight="900" fill="#141414" text-anchor="middle" transform="rotate(28.3 698.4 828.8)" letter-spacing="0.5">공업탑</text>
<text x="885.3" y="929.6" font-size="40" font-weight="900" fill="#141414" text-anchor="middle" transform="rotate(28.3 885.3 929.6)" letter-spacing="0.5">태화강역</text>
<circle cx="505" cy="740" r="40" fill="#fff" stroke="#141414" stroke-width="6"/>
<text x="505" y="754" font-size="38" font-weight="900" fill="#141414" text-anchor="middle">307</text>
<line x1="120" y1="1170" x2="900" y2="430" stroke="#141414" stroke-width="66" stroke-linecap="round"/>
<line x1="120" y1="1170" x2="900" y2="430" stroke="#ffc20e" stroke-width="58" stroke-linecap="round"/>
<text x="173.5" y="1101.4" font-size="38" font-weight="900" fill="#141414" text-anchor="middle" transform="rotate(-43.5 173.5 1101.4)" letter-spacing="0.5">꽃바위</text>
<text x="337.3" y="946.0" font-size="38" font-weight="900" fill="#141414" text-anchor="middle" transform="rotate(-43.5 337.3 946.0)" letter-spacing="0.5">현대중공업</text>
<text x="501.1" y="790.6" font-size="38" font-weight="900" fill="#141414" text-anchor="middle" transform="rotate(-43.5 501.1 790.6)" letter-spacing="0.5">성남동</text>
<text x="664.9" y="635.2" font-size="38" font-weight="900" fill="#141414" text-anchor="middle" transform="rotate(-43.5 664.9 635.2)" letter-spacing="0.5">태화루</text>
<text x="828.7" y="479.8" font-size="38" font-weight="900" fill="#141414" text-anchor="middle" transform="rotate(-43.5 828.7 479.8)" letter-spacing="0.5">천상중</text>
<circle cx="510" cy="800" r="40" fill="#fff" stroke="#141414" stroke-width="6"/>
<text x="510" y="814" font-size="38" font-weight="900" fill="#141414" text-anchor="middle">123</text>
<line x1="70" y1="820" x2="950" y2="770" stroke="#141414" stroke-width="58" stroke-linecap="round"/>
<line x1="70" y1="820" x2="950" y2="770" stroke="#ffc20e" stroke-width="50" stroke-linecap="round"/>
<text x="139.7" y="804.5" font-size="34" font-weight="900" fill="#141414" text-anchor="middle" transform="rotate(-3.3 139.7 804.5)" letter-spacing="0.5">방어진</text>
<text x="386.1" y="790.5" font-size="34" font-weight="900" fill="#141414" text-anchor="middle" transform="rotate(-3.3 386.1 790.5)" letter-spacing="0.5">태화강역</text>
<text x="632.5" y="776.5" font-size="34" font-weight="900" fill="#141414" text-anchor="middle" transform="rotate(-3.3 632.5 776.5)" letter-spacing="0.5">공업탑</text>
<text x="878.9" y="762.5" font-size="34" font-weight="900" fill="#141414" text-anchor="middle" transform="rotate(-3.3 878.9 762.5)" letter-spacing="0.5">덕하</text>
<circle cx="651" cy="787" r="40" fill="#fff" stroke="#141414" stroke-width="6"/>
<text x="651" y="801" font-size="38" font-weight="900" fill="#141414" text-anchor="middle">126</text>
<text x="210" y="120" font-size="20" font-weight="800" fill="#141414" letter-spacing="3">울산광역시 시내버스 · ULSAN CITY BUS</text>
<text x="210" y="150" font-size="15" font-weight="700" fill="#f07d0c" letter-spacing="2">데이터 시각화 · 노선 재도입 분석 리포트</text>
<text x="200" y="275" font-size="125" font-weight="900" letter-spacing="2"><tspan fill="#f07d0c">울산</tspan> <tspan fill="#5bb318">버스</tspan></text>
<text x="205" y="338" font-size="33" font-weight="800" fill="#141414">폐지노선 재도입 — <tspan fill="#f07d0c">123</tspan> · <tspan fill="#c01f6b">126</tspan> · <tspan fill="#e8381f">307</tspan></text>
<text x="700" y="120" font-size="22" font-weight="900" fill="#141414" text-anchor="end">2026.04.07</text>
<text x="70" y="1262" font-size="16" font-weight="800" fill="#141414">노선 유형 · 색</text>
<rect x="70" y="1274" width="24" height="15" fill="#ffc20e" stroke="#141414" stroke-width="0.8"/>
<text x="100" y="1287" font-size="15" font-weight="700" fill="#141414">일반</text>
<rect x="190" y="1274" width="24" height="15" fill="#8a73d8" stroke="#141414" stroke-width="0.8"/>
<text x="220" y="1287" font-size="15" font-weight="700" fill="#141414">좌석</text>
<rect x="310" y="1274" width="24" height="15" fill="#2f7fe0" stroke="#141414" stroke-width="0.8"/>
<text x="340" y="1287" font-size="15" font-weight="700" fill="#141414">지선</text>
<rect x="430" y="1274" width="24" height="15" fill="#7ec820" stroke="#141414" stroke-width="0.8"/>
<text x="460" y="1287" font-size="15" font-weight="700" fill="#141414">마을</text>
<rect x="550" y="1274" width="24" height="15" fill="#e85aa6" stroke="#141414" stroke-width="0.8"/>
<text x="580" y="1287" font-size="15" font-weight="700" fill="#141414">순환</text>
<rect x="670" y="1274" width="24" height="15" fill="#e23b2e" stroke="#141414" stroke-width="0.8"/>
<text x="700" y="1287" font-size="15" font-weight="700" fill="#141414">리무진</text>
<text x="70" y="1324" font-size="14" font-weight="600" fill="#444">굵은 노랑 = 일반 시내버스 · 정류장명은 노선을 따라 표기 · 원 안 숫자 = 노선번호</text>
<text x="930" y="1356" font-size="30" font-weight="900" text-anchor="end"><tspan fill="#141414">ULSAN</tspan><tspan fill="#f07d0c">BUS</tspan></text>
<text x="930" y="1380" font-size="13" font-weight="600" fill="#444" text-anchor="end">getorey.github.io/ulsanbus</text>
</svg>