<svg viewBox="0 0 1000 1414" xmlns="http://www.w3.org/2000/svg" font-family="'Arial Narrow','Apple SD Gothic Neo',sans-serif">
<rect width="1000" height="1414" fill="#f4f2ea"/>
<rect x="60" y="235" width="410" height="385" fill="#ffc20e"/>
<rect x="470" y="235" width="250" height="190" fill="#8a73d8"/>
<rect x="470" y="430" width="250" height="190" fill="#7ec820"/>
<rect x="720" y="235" width="220" height="190" fill="#e23b2e"/>
<rect x="720" y="430" width="220" height="190" fill="#e85aa6"/>
<rect x="60" y="620" width="410" height="380" fill="#2f7fe0"/>
<rect x="60" y="40" width="880" height="195" fill="#fde7cf"/>
<rect x="470" y="620" width="250" height="380" fill="#fffefb"/>
<rect x="720" y="620" width="220" height="380" fill="#16140f"/>
<text x="830" y="800" font-size="58" font-weight="900" fill="#fff" text-anchor="middle">전 노선</text>
<text x="830" y="858" font-size="30" font-weight="800" fill="#ffc20e" text-anchor="middle">6개 유형</text>
<path d="M60.0,40.0 L60.6,74.2 L60.5,108.4 L62.1,142.6 L57.4,176.8 L57.6,211.0 L59.1,245.2 L63.8,279.4 L58.8,313.6 L63.9,347.8 L62.0,382.1 L59.3,416.3 L58.8,450.5 L59.3,484.7 L61.5,518.9 L58.7,553.1 L61.4,587.3 L60.8,621.5 L58.5,655.7 L61.0,689.9 L61.2,724.1 L61.9,758.3 L59.0,792.5 L59.9,826.7 L64.6,860.9 L60.2,895.1 L58.9,929.3 L63.4,963.5 L58.5,997.7 L56.7,1031.9 L59.7,1066.2 L58.6,1100.4 L61.0,1134.6 L62.2,1168.8 L57.0,1203.0 L63.4,1237.2 L56.7,1271.4 L64.4,1305.6 L59.2,1339.8 L60.0,1374.0" fill="none" stroke="#1a1a17" stroke-width="3.2" stroke-linecap="round" stroke-linejoin="round" opacity="0.92"/><path d="M60.0,40.0 L60.6,74.2 L60.5,108.4 L62.1,142.6 L57.4,176.8 L57.6,211.0 L59.1,245.2 L63.8,279.4 L58.8,313.6 L63.9,347.8 L62.0,382.1 L59.3,416.3 L58.8,450.5 L59.3,484.7 L61.5,518.9 L58.7,553.1 L61.4,587.3 L60.8,621.5 L58.5,655.7 L61.0,689.9 L61.2,724.1 L61.9,758.3 L59.0,792.5 L59.9,826.7 L64.6,860.9 L60.2,895.1 L58.9,929.3 L63.4,963.5 L58.5,997.7 L56.7,1031.9 L59.7,1066.2 L58.6,1100.4 L61.0,1134.6 L62.2,1168.8 L57.0,1203.0 L63.4,1237.2 L56.7,1271.4 L64.4,1305.6 L59.2,1339.8 L60.0,1374.0" fill="none" stroke="#1a1a17" stroke-width="1.6" stroke-linecap="round" opacity="0.5"/>
<path d="M940.0,40.0 L942.6,74.2 L937.5,108.4 L939.4,142.6 L936.3,176.8 L938.8,211.0 L943.6,245.2 L937.8,279.4 L944.5,313.6 L938.1,347.8 L940.4,382.1 L943.0,416.3 L938.7,450.5 L939.3,484.7 L939.7,518.9 L941.5,553.1 L937.6,587.3 L942.0,621.5 L936.6,655.7 L943.2,689.9 L940.3,724.1 L936.8,758.3 L937.1,792.5 L941.8,826.7 L937.4,860.9 L939.2,895.1 L939.6,929.3 L940.4,963.5 L938.7,997.7 L938.2,1031.9 L935.4,1066.2 L941.0,1100.4 L940.0,1134.6 L940.8,1168.8 L935.8,1203.0 L942.6,1237.2 L939.1,1271.4 L941.0,1305.6 L939.4,1339.8 L940.0,1374.0" fill="none" stroke="#1a1a17" stroke-width="3.2" stroke-linecap="round" stroke-linejoin="round" opacity="0.92"/><path d="M940.0,40.0 L942.6,74.2 L937.5,108.4 L939.4,142.6 L936.3,176.8 L938.8,211.0 L943.6,245.2 L937.8,279.4 L944.5,313.6 L938.1,347.8 L940.4,382.1 L943.0,416.3 L938.7,450.5 L939.3,484.7 L939.7,518.9 L941.5,553.1 L937.6,587.3 L942.0,621.5 L936.6,655.7 L943.2,689.9 L940.3,724.1 L936.8,758.3 L937.1,792.5 L941.8,826.7 L937.4,860.9 L939.2,895.1 L939.6,929.3 L940.4,963.5 L938.7,997.7 L938.2,1031.9 L935.4,1066.2 L941.0,1100.4 L940.0,1134.6 L940.8,1168.8 L935.8,1203.0 L942.6,1237.2 L939.1,1271.4 L941.0,1305.6 L939.4,1339.8 L940.0,1374.0" fill="none" stroke="#1a1a17" stroke-width="1.6" stroke-linecap="round" opacity="0.5"/>
<path d="M470.0,235.0 L464.4,269.5 L471.3,304.0 L470.5,338.5 L476.3,373.1 L467.7,407.6 L470.2,442.1 L468.0,476.6 L473.9,511.1 L470.8,545.6 L467.5,580.2 L467.5,614.7 L468.4,649.2 L469.6,683.7 L470.3,718.2 L468.2,752.7 L470.2,787.2 L467.6,821.8 L463.7,856.3 L467.9,890.8 L469.7,925.3 L469.5,959.8 L473.5,994.3 L468.6,1028.8 L472.4,1063.4 L467.1,1097.9 L466.6,1132.4 L470.0,1166.9 L468.2,1201.4 L472.0,1235.9 L467.7,1270.5 L474.5,1305.0 L470.2,1339.5 L470.0,1374.0" fill="none" stroke="#1a1a17" stroke-width="3.2" stroke-linecap="round" stroke-linejoin="round" opacity="0.92"/><path d="M470.0,235.0 L464.4,269.5 L471.3,304.0 L470.5,338.5 L476.3,373.1 L467.7,407.6 L470.2,442.1 L468.0,476.6 L473.9,511.1 L470.8,545.6 L467.5,580.2 L467.5,614.7 L468.4,649.2 L469.6,683.7 L470.3,718.2 L468.2,752.7 L470.2,787.2 L467.6,821.8 L463.7,856.3 L467.9,890.8 L469.7,925.3 L469.5,959.8 L473.5,994.3 L468.6,1028.8 L472.4,1063.4 L467.1,1097.9 L466.6,1132.4 L470.0,1166.9 L468.2,1201.4 L472.0,1235.9 L467.7,1270.5 L474.5,1305.0 L470.2,1339.5 L470.0,1374.0" fill="none" stroke="#1a1a17" stroke-width="1.6" stroke-linecap="round" opacity="0.5"/>
<path d="M720.0,235.0 L719.1,269.5 L716.6,304.0 L717.4,338.5 L716.7,373.1 L721.7,407.6 L719.7,442.1 L716.7,476.6 L725.3,511.1 L724.3,545.6 L719.3,580.2 L720.0,614.7 L719.8,649.2 L720.1,683.7 L716.6,718.2 L721.5,752.7 L724.3,787.2 L724.5,821.8 L722.8,856.3 L720.4,890.8 L721.4,925.3 L715.9,959.8 L718.8,994.3 L720.5,1028.8 L721.3,1063.4 L723.8,1097.9 L717.7,1132.4 L720.0,1166.9 L719.6,1201.4 L723.6,1235.9 L717.9,1270.5 L722.1,1305.0 L723.5,1339.5 L720.0,1374.0" fill="none" stroke="#1a1a17" stroke-width="3.2" stroke-linecap="round" stroke-linejoin="round" opacity="0.92"/><path d="M720.0,235.0 L719.1,269.5 L716.6,304.0 L717.4,338.5 L716.7,373.1 L721.7,407.6 L719.7,442.1 L716.7,476.6 L725.3,511.1 L724.3,545.6 L719.3,580.2 L720.0,614.7 L719.8,649.2 L720.1,683.7 L716.6,718.2 L721.5,752.7 L724.3,787.2 L724.5,821.8 L722.8,856.3 L720.4,890.8 L721.4,925.3 L715.9,959.8 L718.8,994.3 L720.5,1028.8 L721.3,1063.4 L723.8,1097.9 L717.7,1132.4 L720.0,1166.9 L719.6,1201.4 L723.6,1235.9 L717.9,1270.5 L722.1,1305.0 L723.5,1339.5 L720.0,1374.0" fill="none" stroke="#1a1a17" stroke-width="1.6" stroke-linecap="round" opacity="0.5"/>
<path d="M360.0,620.0 L362.7,654.5 L365.4,689.1 L361.5,723.6 L358.3,758.2 L365.1,792.7 L359.3,827.3 L358.2,861.8 L358.5,896.4 L356.9,930.9 L359.0,965.5 L360.0,1000.0" fill="none" stroke="#1a1a17" stroke-width="3.2" stroke-linecap="round" stroke-linejoin="round" opacity="0.92"/><path d="M360.0,620.0 L362.7,654.5 L365.4,689.1 L361.5,723.6 L358.3,758.2 L365.1,792.7 L359.3,827.3 L358.2,861.8 L358.5,896.4 L356.9,930.9 L359.0,965.5 L360.0,1000.0" fill="none" stroke="#1a1a17" stroke-width="1.6" stroke-linecap="round" opacity="0.5"/>
<path d="M60.0,40.0 L95.2,43.0 L130.4,38.9 L165.6,36.0 L200.8,45.6 L236.0,41.6 L271.2,39.7 L306.4,42.1 L341.6,39.8 L376.8,41.9 L412.0,39.6 L447.2,39.2 L482.4,40.2 L517.6,38.1 L552.8,42.6 L588.0,34.0 L623.2,41.1 L658.4,41.0 L693.6,41.2 L728.8,42.4 L764.0,38.4 L799.2,44.2 L834.4,38.5 L869.6,40.4 L904.8,37.8 L940.0,40.0" fill="none" stroke="#1a1a17" stroke-width="3.2" stroke-linecap="round" stroke-linejoin="round" opacity="0.92"/><path d="M60.0,40.0 L95.2,43.0 L130.4,38.9 L165.6,36.0 L200.8,45.6 L236.0,41.6 L271.2,39.7 L306.4,42.1 L341.6,39.8 L376.8,41.9 L412.0,39.6 L447.2,39.2 L482.4,40.2 L517.6,38.1 L552.8,42.6 L588.0,34.0 L623.2,41.1 L658.4,41.0 L693.6,41.2 L728.8,42.4 L764.0,38.4 L799.2,44.2 L834.4,38.5 L869.6,40.4 L904.8,37.8 L940.0,40.0" fill="none" stroke="#1a1a17" stroke-width="1.6" stroke-linecap="round" opacity="0.5"/>
<path d="M60.0,235.0 L95.2,237.4 L130.4,231.9 L165.6,237.3 L200.8,236.9 L236.0,235.6 L271.2,233.3 L306.4,236.2 L341.6,234.7 L376.8,235.9 L412.0,235.5 L447.2,236.8 L482.4,233.1 L517.6,235.0 L552.8,235.4 L588.0,235.4 L623.2,232.1 L658.4,237.4 L693.6,234.6 L728.8,232.8 L764.0,235.1 L799.2,236.7 L834.4,229.0 L869.6,238.6 L904.8,231.9 L940.0,235.0" fill="none" stroke="#1a1a17" stroke-width="3.2" stroke-linecap="round" stroke-linejoin="round" opacity="0.92"/><path d="M60.0,235.0 L95.2,237.4 L130.4,231.9 L165.6,237.3 L200.8,236.9 L236.0,235.6 L271.2,233.3 L306.4,236.2 L341.6,234.7 L376.8,235.9 L412.0,235.5 L447.2,236.8 L482.4,233.1 L517.6,235.0 L552.8,235.4 L588.0,235.4 L623.2,232.1 L658.4,237.4 L693.6,234.6 L728.8,232.8 L764.0,235.1 L799.2,236.7 L834.4,229.0 L869.6,238.6 L904.8,231.9 L940.0,235.0" fill="none" stroke="#1a1a17" stroke-width="1.6" stroke-linecap="round" opacity="0.5"/>
<path d="M60.0,620.0 L95.2,621.2 L130.4,620.4 L165.6,621.6 L200.8,621.4 L236.0,622.2 L271.2,617.5 L306.4,621.7 L341.6,622.5 L376.8,622.1 L412.0,625.9 L447.2,619.5 L482.4,626.0 L517.6,622.0 L552.8,620.0 L588.0,620.4 L623.2,622.6 L658.4,620.1 L693.6,621.2 L728.8,620.1 L764.0,621.6 L799.2,618.6 L834.4,616.6 L869.6,615.4 L904.8,621.3 L940.0,620.0" fill="none" stroke="#1a1a17" stroke-width="3.2" stroke-linecap="round" stroke-linejoin="round" opacity="0.92"/><path d="M60.0,620.0 L95.2,621.2 L130.4,620.4 L165.6,621.6 L200.8,621.4 L236.0,622.2 L271.2,617.5 L306.4,621.7 L341.6,622.5 L376.8,622.1 L412.0,625.9 L447.2,619.5 L482.4,626.0 L517.6,622.0 L552.8,620.0 L588.0,620.4 L623.2,622.6 L658.4,620.1 L693.6,621.2 L728.8,620.1 L764.0,621.6 L799.2,618.6 L834.4,616.6 L869.6,615.4 L904.8,621.3 L940.0,620.0" fill="none" stroke="#1a1a17" stroke-width="1.6" stroke-linecap="round" opacity="0.5"/>
<path d="M60.0,1000.0 L95.2,999.9 L130.4,996.7 L165.6,1001.2 L200.8,998.0 L236.0,995.8 L271.2,1002.2 L306.4,999.9 L341.6,995.9 L376.8,997.6 L412.0,996.8 L447.2,1000.6 L482.4,1001.6 L517.6,1002.7 L552.8,998.8 L588.0,997.5 L623.2,1000.0 L658.4,996.4 L693.6,999.9 L728.8,999.3 L764.0,998.3 L799.2,1000.8 L834.4,998.5 L869.6,993.7 L904.8,1000.1 L940.0,1000.0" fill="none" stroke="#1a1a17" stroke-width="3.2" stroke-linecap="round" stroke-linejoin="round" opacity="0.92"/><path d="M60.0,1000.0 L95.2,999.9 L130.4,996.7 L165.6,1001.2 L200.8,998.0 L236.0,995.8 L271.2,1002.2 L306.4,999.9 L341.6,995.9 L376.8,997.6 L412.0,996.8 L447.2,1000.6 L482.4,1001.6 L517.6,1002.7 L552.8,998.8 L588.0,997.5 L623.2,1000.0 L658.4,996.4 L693.6,999.9 L728.8,999.3 L764.0,998.3 L799.2,1000.8 L834.4,998.5 L869.6,993.7 L904.8,1000.1 L940.0,1000.0" fill="none" stroke="#1a1a17" stroke-width="1.6" stroke-linecap="round" opacity="0.5"/>
<path d="M60.0,1374.0 L95.2,1374.5 L130.4,1370.8 L165.6,1373.3 L200.8,1375.4 L236.0,1372.0 L271.2,1373.8 L306.4,1374.7 L341.6,1370.9 L376.8,1372.3 L412.0,1373.7 L447.2,1374.2 L482.4,1373.1 L517.6,1373.3 L552.8,1374.3 L588.0,1368.5 L623.2,1374.6 L658.4,1379.4 L693.6,1376.9 L728.8,1376.2 L764.0,1373.6 L799.2,1371.5 L834.4,1371.7 L869.6,1378.9 L904.8,1374.0 L940.0,1374.0" fill="none" stroke="#1a1a17" stroke-width="3.2" stroke-linecap="round" stroke-linejoin="round" opacity="0.92"/><path d="M60.0,1374.0 L95.2,1374.5 L130.4,1370.8 L165.6,1373.3 L200.8,1375.4 L236.0,1372.0 L271.2,1373.8 L306.4,1374.7 L341.6,1370.9 L376.8,1372.3 L412.0,1373.7 L447.2,1374.2 L482.4,1373.1 L517.6,1373.3 L552.8,1374.3 L588.0,1368.5 L623.2,1374.6 L658.4,1379.4 L693.6,1376.9 L728.8,1376.2 L764.0,1373.6 L799.2,1371.5 L834.4,1371.7 L869.6,1378.9 L904.8,1374.0 L940.0,1374.0" fill="none" stroke="#1a1a17" stroke-width="1.6" stroke-linecap="round" opacity="0.5"/>
<path d="M470.0,425.0 L505.7,425.1 L541.4,425.6 L577.1,426.6 L612.9,429.0 L648.6,425.0 L684.3,424.0 L720.0,425.0" fill="none" stroke="#1a1a17" stroke-width="3.2" stroke-linecap="round" stroke-linejoin="round" opacity="0.92"/><path d="M470.0,425.0 L505.7,425.1 L541.4,425.6 L577.1,426.6 L612.9,429.0 L648.6,425.0 L684.3,424.0 L720.0,425.0" fill="none" stroke="#1a1a17" stroke-width="1.6" stroke-linecap="round" opacity="0.5"/>
<path d="M720.0,425.0 L756.7,423.4 L793.3,423.9 L830.0,426.7 L866.7,425.0 L903.3,426.9 L940.0,425.0" fill="none" stroke="#1a1a17" stroke-width="3.2" stroke-linecap="round" stroke-linejoin="round" opacity="0.92"/><path d="M720.0,425.0 L756.7,423.4 L793.3,423.9 L830.0,426.7 L866.7,425.0 L903.3,426.9 L940.0,425.0" fill="none" stroke="#1a1a17" stroke-width="1.6" stroke-linecap="round" opacity="0.5"/>
<path d="M470.0,620.0 L505.7,620.7 L541.4,622.6 L577.1,625.3 L612.9,621.8 L648.6,619.9 L684.3,624.1 L720.0,620.0" fill="none" stroke="#1a1a17" stroke-width="3.2" stroke-linecap="round" stroke-linejoin="round" opacity="0.92"/><path d="M470.0,620.0 L505.7,620.7 L541.4,622.6 L577.1,625.3 L612.9,621.8 L648.6,619.9 L684.3,624.1 L720.0,620.0" fill="none" stroke="#1a1a17" stroke-width="1.6" stroke-linecap="round" opacity="0.5"/>
<text x="78" y="273" font-size="28" font-weight="900" fill="#1a1a17">일반 시내버스</text>
<text x="454" y="273" font-size="17" font-weight="800" fill="#1a1a17" text-anchor="end">192개</text>
<text x="78" y="329" font-size="56" font-weight="900" fill="#1a1a17" letter-spacing="1">307·123·126</text>
<text x="78" y="355" font-size="15" font-weight="700" fill="#1a1a17">111 112 114 115 124 127 132 134 213 215</text>
<text x="78" y="375" font-size="15" font-weight="700" fill="#1a1a17">216 401 412 427 432 ... 외 다수 (재도입</text>
<text x="78" y="395" font-size="15" font-weight="700" fill="#1a1a17">123·126·307)</text>
<text x="488" y="265" font-size="20" font-weight="900" fill="#161022">좌석</text>
<text x="704" y="265" font-size="17" font-weight="800" fill="#161022" text-anchor="end">18개</text>
<text x="488" y="307" font-size="42" font-weight="900" fill="#161022" letter-spacing="1">1713</text>
<text x="488" y="333" font-size="13" font-weight="700" fill="#161022">1114 1144 1154 1411 1421</text>
<text x="488" y="351" font-size="13" font-weight="700" fill="#161022">1452 1713 1723 1733</text>
<text x="488" y="460" font-size="20" font-weight="900" fill="#15240a">마을</text>
<text x="704" y="460" font-size="17" font-weight="800" fill="#15240a" text-anchor="end">34개</text>
<text x="488" y="502" font-size="42" font-weight="900" fill="#15240a" letter-spacing="1">중구54</text>
<text x="488" y="528" font-size="13" font-weight="700" fill="#15240a">남구51 동구52 중구53 중구54 중구55</text>
<text x="488" y="546" font-size="13" font-weight="700" fill="#15240a">동구54 울주61</text>
<text x="738" y="265" font-size="20" font-weight="900" fill="#fff">리무진</text>
<text x="924" y="265" font-size="17" font-weight="800" fill="#fff" text-anchor="end">5개</text>
<text x="738" y="307" font-size="42" font-weight="900" fill="#fff" letter-spacing="1">5002</text>
<text x="738" y="333" font-size="13" font-weight="700" fill="#fff">5001 5002 5003 5004</text>
<text x="738" y="351" font-size="13" font-weight="700" fill="#fff">5005</text>
<text x="738" y="460" font-size="20" font-weight="900" fill="#3a0f27">순환</text>
<text x="924" y="460" font-size="17" font-weight="800" fill="#3a0f27" text-anchor="end">13개</text>
<text x="738" y="502" font-size="42" font-weight="900" fill="#3a0f27" letter-spacing="1">울주81</text>
<text x="738" y="528" font-size="13" font-weight="700" fill="#3a0f27">울주81 82 83 84 85 86 87</text>
<text x="738" y="546" font-size="13" font-weight="700" fill="#3a0f27">88 89 90</text>
<text x="78" y="658" font-size="28" font-weight="900" fill="#fff">지선</text>
<text x="454" y="658" font-size="17" font-weight="800" fill="#fff" text-anchor="end">93개</text>
<text x="78" y="714" font-size="56" font-weight="900" fill="#fff" letter-spacing="1">남구05</text>
<text x="78" y="740" font-size="15" font-weight="700" fill="#fff">남구01 02 03 04 05 · 중구01 · 동구01 · 북구01 ·</text>
<text x="78" y="760" font-size="15" font-weight="700" fill="#fff">울주01 09 ... 외 다수</text>
<text x="488" y="660" font-size="22" font-weight="900" fill="#1a1a17">노선 한눈에</text>
<text x="488" y="694" font-size="15" font-weight="600" fill="#333">울산 시내버스 전 노선을</text>
<text x="488" y="720" font-size="15" font-weight="600" fill="#333">유형별 색으로 정리한</text>
<text x="488" y="746" font-size="15" font-weight="600" fill="#333">노선도입니다.</text>
<text x="488" y="772" font-size="15" font-weight="600" fill="#333"></text>
<text x="488" y="798" font-size="15" font-weight="600" fill="#333">· 굵은 노랑 = 일반</text>
<text x="488" y="824" font-size="15" font-weight="600" fill="#333">· 색 = 버스 유형</text>
<text x="488" y="850" font-size="15" font-weight="600" fill="#333">· 큰 숫자 = 대표 노선</text>
<text x="78" y="100" font-size="22" font-weight="900" fill="#1a1a17" letter-spacing="3">ULSAN CITY BUS</text>
<text x="78" y="190" font-size="96" font-weight="900"><tspan fill="#f07d0c">울산</tspan> <tspan fill="#5bb318">버스</tspan> <tspan fill="#1a1a17">노선도</tspan></text>
<text x="922" y="100" font-size="20" font-weight="900" fill="#1a1a17" text-anchor="end">2026.04.07</text>
<text x="78" y="1070" font-size="24" font-weight="900" fill="#f07d0c">데이터 시각화 리포트</text>
<text x="78" y="1100" font-size="16" font-weight="700" fill="#1a1a17">폐지노선 재도입 분석 — 123 · 126 · 307</text>
<text x="78" y="1180" font-size="16" font-weight="700" fill="#1a1a17">공개 사이트</text>
<text x="78" y="1205" font-size="16" font-weight="600" fill="#444">getorey.github.io/ulsanbus</text>
<text x="78" y="1320" font-size="15" font-weight="700" fill="#1a1a17">자료: 교통카드 합성데이터 · BIS 실노선 ·</text>
<text x="78" y="1342" font-size="15" font-weight="700" fill="#1a1a17">국토부 혼잡도 · SGIS 인구</text>
<text x="922" y="1330" font-size="40" font-weight="900" text-anchor="end"><tspan fill="#1a1a17">ULSAN</tspan><tspan fill="#f07d0c">BUS</tspan></text>
</svg>